<svg width="354" height="28" viewBox="0 0 354 28" fill="none" xmlns="http://www.w3.org/2000/svg">
<path d="M0 1.52985C0 1.02985 0.43 0.599854 0.93 0.599854C1.47 0.599854 1.9 1.02985 1.9 1.52985V26.8199C1.9 27.3199 1.47 27.7499 0.93 27.7499C0.43 27.7499 0 27.3199 0 26.8199V1.52985Z" fill="white"/>
<path d="M20.7196 4.58992V26.8199C20.7196 27.3199 20.2896 27.7499 19.7896 27.7499C19.2896 27.7499 18.8596 27.3199 18.8596 26.8199V1.91992C18.7396 1.52992 18.8596 1.13993 19.2096 0.869929C19.6396 0.599929 20.2596 0.679925 20.5296 1.09992L36.9796 23.9099V1.79992C36.9796 1.29992 37.4096 0.869929 37.9096 0.869929C38.4496 0.869929 38.8796 1.29992 38.8796 1.79992V26.8199C38.8796 27.3199 38.4496 27.7499 37.9096 27.7499C37.5996 27.7499 37.3696 27.6299 37.1696 27.3999C37.1296 27.3599 37.0496 27.3199 37.0096 27.2399L20.7196 4.58992Z" fill="white"/>
<path d="M54.5804 22.67C54.8904 22.28 55.4304 22.24 55.7804 22.55C57.8004 24.18 61.1704 26.08 64.7004 26.04C67.0704 26.04 69.2004 25.34 70.6704 24.26C72.1804 23.17 73.0004 21.74 73.0004 20.23C73.0004 18.72 72.2604 17.51 70.7904 16.51C69.3204 15.54 67.1404 14.8 64.5104 14.3H64.4304C61.9104 13.83 59.7004 13.14 58.0304 12.01C56.3604 10.92 55.2404 9.28997 55.2404 7.27997C55.2404 5.26997 56.3704 3.43997 58.0704 2.19997C59.7804 0.959966 62.0704 0.219971 64.6304 0.219971C68.2004 0.219971 70.8804 1.96997 73.0104 3.35997C73.4004 3.62997 73.5104 4.13997 73.2404 4.55997C73.0104 4.94997 72.4604 5.05997 72.0804 4.78997C69.9504 3.38997 67.6204 1.91997 64.6304 1.91997C62.4204 1.91997 60.4404 2.57996 59.0804 3.54996C57.7204 4.55997 56.9504 5.87997 56.9504 7.26997C56.9904 8.62997 57.6104 9.63997 58.9704 10.57C60.3304 11.5 62.3404 12.16 64.7904 12.63H64.8704C67.5904 13.13 69.9904 13.91 71.7704 15.11C73.5504 16.27 74.7604 18.06 74.7604 20.23C74.7604 22.4 73.5204 24.34 71.7004 25.66C69.8804 26.98 67.4304 27.79 64.7204 27.79C60.5704 27.75 56.9604 25.66 54.7104 23.87C54.3604 23.56 54.3204 23.02 54.5904 22.67H54.5804Z" fill="white"/>
<path d="M89.1396 1.52985C89.1396 1.02985 89.5696 0.599854 90.0696 0.599854C90.6096 0.599854 91.0396 1.02985 91.0396 1.52985V26.8199C91.0396 27.3199 90.6096 27.7499 90.0696 27.7499C89.5696 27.7499 89.1396 27.3199 89.1396 26.8199V1.52985Z" fill="white"/>
<path d="M120.56 15.53C120.02 15.53 119.59 15.14 119.59 14.6C119.59 14.06 120.02 13.63 120.56 13.63H129.06C129.53 13.67 129.91 14.1 129.91 14.6V24.07C129.87 24.34 129.75 24.61 129.56 24.77C127.16 26.67 124.13 27.76 120.79 27.76C112.99 27.72 106.67 21.63 106.67 13.95C106.67 6.26997 112.99 0.219971 120.79 0.219971C124.16 0.219971 127.15 1.37997 129.6 3.27997C129.95 3.54997 130.07 4.20997 129.72 4.59997C129.41 4.98997 128.83 5.06997 128.36 4.75997C126.38 3.12997 123.71 2.11997 120.8 2.11997C114.01 2.11997 108.58 7.42997 108.58 13.95C108.58 20.47 114.01 25.86 120.8 25.86C123.44 25.86 125.96 25.01 127.98 23.53V15.54H120.57L120.56 15.53Z" fill="white"/>
<path d="M148.61 4.58992V26.8199C148.61 27.3199 148.18 27.7499 147.68 27.7499C147.18 27.7499 146.75 27.3199 146.75 26.8199V1.91992C146.63 1.52992 146.75 1.13993 147.1 0.869929C147.53 0.599929 148.15 0.679925 148.42 1.09992L164.87 23.9099V1.79992C164.87 1.29992 165.3 0.869929 165.8 0.869929C166.34 0.869929 166.77 1.29992 166.77 1.79992V26.8199C166.77 27.3199 166.34 27.7499 165.8 27.7499C165.49 27.7499 165.26 27.6299 165.06 27.3999C165.02 27.3599 164.94 27.3199 164.91 27.2399L148.62 4.58992H148.61Z" fill="white"/>
<path d="M182.63 1.52985C182.63 1.02985 183.06 0.599854 183.56 0.599854C184.1 0.599854 184.53 1.02985 184.53 1.52985V26.8199C184.53 27.3199 184.1 27.7499 183.56 27.7499C183.06 27.7499 182.63 27.3199 182.63 26.8199V1.52985Z" fill="white"/>
<path d="M200.12 22.67C200.43 22.28 200.97 22.24 201.32 22.55C203.34 24.18 206.71 26.08 210.24 26.04C212.61 26.04 214.74 25.34 216.21 24.26C217.72 23.17 218.54 21.74 218.54 20.23C218.54 18.72 217.8 17.51 216.33 16.51C214.86 15.54 212.68 14.8 210.05 14.3H209.97C207.45 13.83 205.24 13.14 203.57 12.01C201.9 10.92 200.78 9.28997 200.78 7.27997C200.78 5.26997 201.91 3.43997 203.61 2.19997C205.32 0.959966 207.61 0.219971 210.17 0.219971C213.74 0.219971 216.42 1.96997 218.55 3.35997C218.94 3.62997 219.05 4.13997 218.78 4.55997C218.55 4.94997 218 5.05997 217.62 4.78997C215.49 3.38997 213.16 1.91997 210.17 1.91997C207.96 1.91997 205.98 2.57996 204.62 3.54996C203.26 4.55997 202.49 5.87997 202.49 7.26997C202.53 8.62997 203.15 9.63997 204.51 10.57C205.87 11.5 207.88 12.16 210.33 12.63H210.41C213.13 13.13 215.53 13.91 217.32 15.11C219.1 16.27 220.31 18.06 220.31 20.23C220.31 22.4 219.07 24.34 217.25 25.66C215.43 26.98 212.98 27.79 210.27 27.79C206.12 27.75 202.51 25.66 200.26 23.87C199.91 23.56 199.87 23.02 200.14 22.67H200.12Z" fill="white"/>
<path d="M247.33 0.209961C250.67 0.209961 253.73 1.36996 256.1 3.19996C256.53 3.54996 256.6 4.20996 256.25 4.55996C255.94 5.02996 255.32 5.05996 254.93 4.74996C252.84 3.11996 250.2 2.10996 247.33 2.10996C240.54 2.10996 235.11 7.41996 235.11 14.06C235.11 20.7 240.54 25.85 247.33 25.85C250.2 25.85 252.84 24.92 254.86 23.21C255.33 22.9 255.95 22.98 256.22 23.44C256.61 23.79 256.53 24.49 256.1 24.8C253.73 26.62 250.67 27.75 247.33 27.75C239.53 27.75 233.21 21.62 233.21 14.06C233.21 6.49996 239.53 0.249961 247.33 0.209961Z" fill="#F7A848"/>
<path d="M285.77 20.73H273.4L271 27.13C270.84 27.52 270.5 27.75 270.11 27.75C270.03 27.75 269.88 27.71 269.76 27.71C269.29 27.52 269.02 26.93 269.22 26.47L278.65 1.28996C278.8 0.939963 279.19 0.709961 279.58 0.709961C280.01 0.709961 280.4 0.939963 280.51 1.28996L289.94 26.47C290.13 26.94 289.9 27.52 289.44 27.71C289.28 27.71 289.21 27.75 289.09 27.75C288.74 27.75 288.35 27.52 288.2 27.13L285.79 20.73H285.77ZM274.09 18.83H285.07L279.6 4.23996L274.09 18.83Z" fill="#F7A848"/>
<path d="M301.25 22.67C301.56 22.28 302.1 22.24 302.45 22.55C304.47 24.18 307.84 26.08 311.37 26.04C313.74 26.04 315.87 25.34 317.34 24.26C318.85 23.17 319.67 21.74 319.67 20.23C319.67 18.72 318.93 17.51 317.46 16.51C315.99 15.54 313.81 14.8 311.18 14.3H311.1C308.58 13.83 306.37 13.14 304.7 12.01C303.03 10.92 301.91 9.28997 301.91 7.27997C301.91 5.26997 303.04 3.43997 304.74 2.19997C306.45 0.959966 308.74 0.219971 311.3 0.219971C314.87 0.219971 317.55 1.96997 319.68 3.35997C320.07 3.62997 320.18 4.13997 319.91 4.55997C319.68 4.94997 319.13 5.05997 318.75 4.78997C316.62 3.38997 314.29 1.91997 311.3 1.91997C309.09 1.91997 307.11 2.57996 305.75 3.54996C304.39 4.55997 303.62 5.87997 303.62 7.26997C303.66 8.62997 304.28 9.63997 305.64 10.57C307 11.5 309.01 12.16 311.46 12.63H311.54C314.26 13.13 316.66 13.91 318.45 15.11C320.23 16.27 321.44 18.06 321.44 20.23C321.44 22.4 320.2 24.34 318.38 25.66C316.56 26.98 314.11 27.79 311.4 27.79C307.25 27.75 303.64 25.66 301.39 23.87C301.04 23.56 301 23.02 301.27 22.67H301.25Z" fill="#F7A848"/>
<path d="M351.4 15.1099H337.43V26.8299C337.43 27.3299 337 27.7599 336.46 27.7599C335.96 27.7599 335.53 27.3299 335.53 26.8299V1.53986C335.53 1.03986 335.96 0.609863 336.46 0.609863C337 0.609863 337.43 1.03986 337.43 1.53986V13.2599H351.4V1.53986C351.4 1.03986 351.83 0.609863 352.33 0.609863C352.87 0.609863 353.3 1.03986 353.3 1.53986V26.8299C353.3 27.3299 352.87 27.7599 352.33 27.7599C351.83 27.7599 351.4 27.3299 351.4 26.8299V15.1099Z" fill="#F7A848"/>
</svg>
